#!OML:ASF F:\VICON\USERDATA\INSTALL\rory3\rory3.ASF
:FULLY-SPECIFIED
:DEGREES
33
root -0.30253201127224627 16.907428630959078 20.559463852295124 2.5040962048589797 -3.136851415290194 -7.514008131713159
lfemur -43.43815941896416 8.70758018745304 -11.134638221276427
ltibia 97.3539553808219
lfoot -4.038128651737761 -3.5604690405409993
ltoes -14.537653829050013
rfemur -8.56391478789168 3.038146572832292 35.881592423158125
rtibia 45.0019018772846
rfoot -10.846597427049323 -12.289783022062698
rtoes -6.505575622839973
lowerback 17.58063592786402 2.0419579527613267 5.901480339504773
upperback -0.4918563879878165 3.9627490349671954 3.008619862352708
thorax -10.017738388428874 1.668711710612118 -1.7527536205204965
lowerneck -21.325153576322766 -4.252127327394708 -1.1549711466252788
upperneck 13.144123593374584 -5.680081609775288 2.2245989455906425
head 7.673760620379887 -2.6350032634321385 0.2728354409715388
lclavicle -2.023247172134359e-15 -3.0371698405424756e-15
lhumerus -58.26304300811792 -14.765427406957903 101.16008158906651
lradius 99.87147306565713
lwrist 36.0241219078701
lhand -23.990766514755943 2.644823848629551
lfingers nan
lthumb 2.5561129469209902 32.41581237899167
rclavicle -1.945274616258316e-15 -2.9913663048754544e-15
rhumerus -43.49940336229619 8.25530983514516 -93.3274492858354
rradius 112.5799607992995
rwrist -12.80515851971459
rhand -16.207838521769375 39.49124073765459
rfingers nan
rthumb 10.531596329653665 10.172441539067234
34
root -0.18506350484825826 17.1686095765263 22.088267915290164 2.6316468255311203 -1.1450229985992908 -7.174569952332502
lfemur -45.82198106004994 5.944605634747441 -13.35395225663558
ltibia 88.02042175752408
lfoot -3.0996939637717964 -2.482363155272144
ltoes -16.889537275197643
rfemur -2.2259808185730208 1.7217820344074437 34.958930128903646
rtibia 39.18672989305696
rfoot 0.3296040136222631 -7.027333974341366
rtoes -5.331109365881482
lowerback 16.82419331809439 2.2241251839207643 6.445180736418392
upperback -0.9424118343108094 4.298423849439354 2.797792830368
thorax -9.731515766707219 1.807710703816096 -2.635930583467212
lowerneck -20.673990656822088 -4.540784828046985 -1.2701308046175335
upperneck 13.457430383227676 -6.142423215692912 2.2944392473593522
head 7.693656535682664 -2.868456496863432 0.2659912814599472
lclavicle -2.024145414826575e-15 -3.0425806076281324e-15
lhumerus -61.52210279443865 -13.124491720232195 100.94389455459978
lradius 100.96124959092751
lwrist 36.51517201921493
lhand -23.796207730054178 1.968425972284018
lfingers nan
lthumb 2.7467229807346962 31.725885495522967
rclavicle -1.918315985628849e-15 -2.9808268647975974e-15
rhumerus -42.48962457141909 9.340536671456393 -93.27030736965922
rradius 114.24884734774143
rwrist -11.626107273664642
rhand -16.30698830163974 39.65605508649804
rfingers nan
rthumb 10.432041377108867 10.32220181185865
35
root -0.05362784407365817 17.505805871118547 24.244891977827002 3.1257053329013997 0.35623159748744526 -6.912658295719766
lfemur -45.96912415288238 3.0994654984370444 -14.861557427469021
ltibia 76.17510893638112
lfoot -2.8766936958260856 -4.4789589325689505
ltoes -18.196092162393683
rfemur 3.946907698959926 1.6006672953290249 34.51936290266639
rtibia 33.06827659177554
rfoot 12.384565357039332 -4.560575709388259
rtoes 0.5984554663216755
lowerback 15.8705129655667 2.4741197751432074 6.929681541882694
upperback -1.4756248185878458 4.660723238234401 2.4349106472376434
thorax -9.515919763638228 1.9357503456163883 -3.344002342353723
lowerneck -20.009356884039903 -4.757067798540287 -1.3475728442930572
upperneck 14.107406303268007 -6.50709140635143 2.312046814329368
head 7.829537383453596 -3.0278524399333815 0.2447498438747332
lclavicle -2.013096147903562e-15 -3.037840793969753e-15
lhumerus -64.25959762509218 -11.49792062371755 100.57067859468233
lradius 102.53751684544969
lwrist 36.81386199432178
lhand -23.87692561858672 1.3414902613312836
lfingers nan
lthumb 2.820273312168476 31.395532543497698
rclavicle -1.892517440048363e-15 -2.9701506363330667e-15
rhumerus -41.72199445537121 10.699935356277734 -93.36105436361527
rradius 115.65816378570013
rwrist -10.382924630481236
rhand -16.369798803235334 39.84117136229823
rfingers nan
rthumb 10.37641236512603 10.450297164991593
36
root 0.04790647565576164 17.844393829314612 24.75330799980015 3.305483175517873 2.134589532390682 -6.279210715048421
lfemur -43.832494275247704 0.768927661500046 -16.1845961541347
ltibia 61.982178904632555
lfoot -2.350863016327937 -6.207110816191264
ltoes -20.145139338964565
rfemur 7.93653168290313 2.255589168936212 33.96359958380789
rtibia 30.00788399719105
rfoot 20.43718444700722 -4.841448596783254
rtoes 8.697028934811433
lowerback 14.83349749123324 2.3928824194879774 6.861628599984206
upperback -2.0064465257423167 4.594672712532417 2.0645547086186826
thorax -9.368296567197119 1.9336539407379538 -3.567263312777964
lowerneck -19.62793821359614 -4.834239722429356 -1.4321799478252073
upperneck 14.729736012155069 -6.6411363638036205 2.383879679418137
head 8.020607738208454 -3.0463382913407155 0.2727504759641419
lclavicle -2.012388221576914e-15 -3.0398870256860304e-15
lhumerus -66.35267175163787 -10.117266016542674 100.14819940374072
lradius 104.35791111862925
lwrist 36.696495405788546
lhand -24.358539871805924 0.8177257522679036
lfingers nan
lthumb 2.3176500574670773 30.94911976657095
rclavicle -1.870221253403832e-15 -2.9588122102915863e-15
rhumerus -41.35581250043887 11.970089184375396 -93.54524214304982
rradius 116.72593854132509
rwrist -10.078412422411466
rhand -16.3876939812983 39.98508794487359
rfingers nan
rthumb 10.366453799623017 10.565154895043385
37
root 0.10591620724469167 18.121667408698567 25.1790335808223 3.3462017993924422 3.3337089082602698 -6.6246729272859355
lfemur -41.29608882897475 -0.8610304854519637 -16.418305681707068
ltibia 47.917557076316946
lfoot -2.752675750594792 -9.147824297956532
ltoes -17.219180496125265
rfemur 8.823230040959064 3.4165429552220363 34.44148085361912
rtibia 32.45782637507729
rfoot 22.632219274115187 -5.365722073412474
rtoes 13.756781099537996
lowerback 13.950594390828087 2.5120638269025615 7.267439551479568
upperback -2.287396012074379 4.716962222081429 1.9049447968729472
thorax -9.164120770312762 1.9997314947675147 -3.339830798127312
lowerneck -19.369479533306198 -4.90029195960068 -1.5219801047568344
upperneck 14.994525430639722 -6.758342776315724 2.51235262024122
head 8.110034910705489 -3.0915686968027405 0.31943907993876813
lclavicle -2.000622194019791e-15 -3.0313275061632235e-15
lhumerus -67.47756064103228 -9.37497848381264 99.75195245754121
lradius 106.32802666650663
lwrist 36.13993571764088
lhand -24.704563084320814 0.6015736799086777
lfingers nan
lthumb 1.9490679853085147 30.79653209316756
rclavicle -1.876591585969403e-15 -2.9650129809231454e-15
rhumerus -41.41578082955138 13.109765700301054 -93.87685635904518
rradius 117.4155178195683
rwrist -9.525339784363137
rhand -16.3590541064273 39.92404989604919
rfingers nan
rthumb 10.337835718143202 10.427830439682896
38
root 0.10417781607024731 18.29042545686779 25.795036747873436 3.3843729924207704 4.074368489665668 -7.456713105391479
lfemur -38.459206566379095 -1.7869945402060712 -16.155572360716413
ltibia 36.65192044316801
lfoot 0.8689697986012984 -8.46555704187087
ltoes -18.845628892240953
rfemur 6.870039703282899 4.422466118106299 35.26746123832095
rtibia 40.40772071673434
rfoot 21.298670905695694 -5.801734830046612
rtoes 14.486949665973803
lowerback 13.513574128807106 2.608620232310995 7.720335660493876
upperback -2.434499042373015 4.897484046344715 2.0332334631007
thorax -9.014557713476135 2.0802549777246515 -3.442069972342394
lowerneck -19.325498725386886 -4.977152962380788 -1.6414171751850706
upperneck 14.95346713940788 -6.886031916289926 2.7063407051221335
head 8.09958170150254 -3.1293873328293844 0.39935422231557055
lclavicle -1.9845402586119677e-15 -3.0173005953765934e-15
lhumerus -67.45326413191978 -9.395038507416402 99.49035618673135
lradius 108.27201695358482
lwrist 35.62505103315422
lhand -24.81731374483773 0.7729353307317102
lfingers nan
lthumb 1.7967755042008369 30.962285520487264
rclavicle -1.8886005258132023e-15 -2.971660413431721e-15
rhumerus -41.8324430906612 13.955027057425092 -94.42271251381938
rradius 117.63700198239482
rwrist -9.53644643515399
rhand -16.36581115884579 39.64636849445266
rfingers nan
rthumb 10.315159381128556 10.138655589879326
39
root 0.06655815251192068 18.330253546788146 26.884999841782346 2.9706899689849315 4.618507047587232 -7.406207146767805
lfemur -35.168354747496345 -2.2480222184157705 -16.85201957640679
ltibia 29.69163808989424
lfoot 4.296516334948648 -8.158418203342293
ltoes -19.559843755320273
rfemur 4.038993798307338 4.192374055573843 34.97910210653046
rtibia 51.77390298827182
rfoot 19.01986114451285 -7.9454280653414235
rtoes 14.775132215188815
lowerback 13.516726724398179 2.5721099375842655 7.360853063996074
upperback -2.3069990530188216 4.789794673075491 2.049913407323301
thorax -8.982524406478788 2.060596213377506 -3.221207048069326
lowerneck -19.38201088661446 -4.975633822129778 -1.70046767373681
upperneck 14.756256306056336 -6.9183990032214435 2.875915487364441
head 8.018010482332897 -3.1391215800258294 0.47350961453116003
lclavicle -1.9832866394761e-15 -3.0159147876045545e-15
lhumerus -66.40652966220301 -10.082324357073205 99.36300244374168
lradius 110.13337249718452
lwrist 35.40110728494927
lhand -24.899439215375487 1.0211320314767027
lfingers nan
lthumb 1.670875031016804 31.19613107902228
rclavicle -1.8872475262551228e-15 -2.9711667376253365e-15
rhumerus -42.49108554551293 14.430728673918935 -95.20911999268799
rradius 117.36016055664452
rwrist -9.952172765967207
rhand -16.37488344269202 39.34300485883168
rfingers nan
rthumb 10.30263662198657 9.85203531913045
